#!OML:ASF E:\acrobat2\Project_11_07_03\Capture day 1\Session 1\Acrobat.ASF
:FULLY-SPECIFIED
:DEGREES
671
root 5.32382 27.8687 -10.5373 9.5139 -0.409783 -2.31899
lowerback 8.03567 0.611238 -1.3491
upperback 4.75961 0.717084 -0.572135
thorax 0.404105 0.33825 0.114391
lowerneck -5.24931 0.152646 0.91527
upperneck 15.8756 -0.308225 2.66747
head 5.65548 0.0868111 0.664632
rclavicle -8.74653e-015 8.74653e-015
rhumerus -32.2843 1.45005 -84.6599
rradius 35.5209
rwrist 2.81023
rhand -6.29104 -15.1504
rfingers 7.12502
rthumb 19.5526 -44.1872
lclavicle -8.74653e-015 8.74653e-015
lhumerus -21.984 -25.6911 85.5776
lradius 36.4316
lwrist 6.4257
lhand 0.346417 -11.6371
lfingers 7.12502
lthumb 25.9221 16.6156
rfemur -26.5171 -4.30981 21.125
rtibia 27.2034
rfoot -4.01802 -8.80045
rtoes -3.63375
lfemur -18.0863 -2.41085 -17.4352
ltibia 25.0904
lfoot -13.6496 -15.8872
ltoes 32.6304
672
root 5.32809 27.8587 -10.4842 9.45758 -0.193558 -2.24903
lowerback 8.189 0.467214 -1.58955
upperback 4.7155 0.506662 -0.621219
thorax 0.275481 0.230226 0.213261
lowerneck -5.26051 0.21549 1.03954
upperneck 15.838 -0.244246 2.71526
head 5.64539 0.127578 0.662936
rclavicle 1.98785e-015 -5.1684e-015
rhumerus -32.5819 1.07668 -84.8315
rradius 36.1921
rwrist 2.99263
rhand -6.63611 -14.6116
rfingers 7.12502
rthumb 19.2208 -43.6818
lclavicle 1.98785e-015 -5.1684e-015
lhumerus -22.0482 -25.9037 85.4807
lradius 36.0528
lwrist 6.44445
lhand 0.124218 -11.7723
lfingers 7.12502
lthumb 25.7093 16.5113
rfemur -26.9367 -4.30244 20.8587
rtibia 28.1733
rfoot -4.81006 -8.06123
rtoes -3.41624
lfemur -18.6518 -2.67517 -17.5391
ltibia 25.6852
lfoot -13.7131 -15.3878
ltoes 31.4051
673
root 5.33013 27.8526 -10.4312 9.39647 0.0796941 -2.21589
lowerback 8.34683 0.33958 -1.77368
upperback 4.68134 0.321118 -0.648472
thorax 0.155792 0.13567 0.302106
lowerneck -5.25595 0.236819 1.1477
upperneck 15.7941 -0.233994 2.76356
head 5.63113 0.141282 0.660606
rclavicle -1.98785e-016 -2.38542e-015
rhumerus -32.9289 0.65039 -84.9793
rradius 36.8753
rwrist 3.09051
rhand -7.02754 -14.194
rfingers 7.12502
rthumb 18.8443 -43.3012
lclavicle -1.98785e-016 -2.38542e-015
lhumerus -22.0094 -26.1241 85.3746
lradius 35.624
lwrist 6.39681
lhand -0.114923 -11.894
lfingers 7.12502
lthumb 25.4803 16.4225
rfemur -27.3221 -4.22077 20.6508
rtibia 29.2681
rfoot -5.78492 -7.45637
rtoes -2.89247
lfemur -19.3434 -2.90973 -17.5414
ltibia 26.5034
lfoot -13.548 -14.9596
ltoes 30.7101
674
root 5.33076 27.8492 -10.3761 9.33312 0.372342 -2.22289
lowerback 8.46524 0.237979 -1.89458
upperback 4.66814 0.175351 -0.657698
thorax 0.0797127 0.0616901 0.371812
lowerneck -5.25004 0.229919 1.21346
upperneck 15.7604 -0.259955 2.82975
head 5.62012 0.136412 0.668656
rclavicle -2.18663e-015 -3.81667e-014
rhumerus -33.2712 0.191339 -85.102
rradius 37.5258
rwrist 3.04318
rhand -7.43518 -13.8755
rfingers 7.12502
rthumb 18.4522 -43.0203
lclavicle -2.18663e-015 -3.81667e-014
lhumerus -21.8723 -26.3148 85.252
lradius 35.1583
lwrist 6.27103
lhand -0.342067 -11.9668
lfingers 7.12502
lthumb 25.2627 16.3806
rfemur -27.6717 -4.06352 20.5117
rtibia 30.4999
rfoot -6.91505 -7.07274
rtoes -2.12449
lfemur -20.0904 -3.08813 -17.4501
ltibia 27.4306
lfoot -13.2639 -14.5759
ltoes 30.3083
675
root 5.33124 27.8474 -10.3175 9.263 0.646148 -2.28653
lowerback 8.52299 0.168821 -1.93199
upperback 4.68191 0.0804063 -0.647187
thorax 0.0642174 0.0137468 0.411343
lowerneck -5.24648 0.20198 1.21055
upperneck 15.745 -0.313559 2.93788
head 5.61543 0.117411 0.699563
rclavicle -1.78906e-015 1.51076e-014
rhumerus -33.5774 -0.28002 -85.2008
rradius 38.1067
rwrist 2.84432
rhand -7.83457 -13.6663
rfingers 7.12502
rthumb 18.068 -42.8471
lclavicle -1.78906e-015 1.51076e-014
lhumerus -21.6489 -26.405 85.1078
lradius 34.6733
lwrist 6.03877
lhand -0.538239 -11.9945
lfingers 7.12502
lthumb 25.0747 16.3793
rfemur -27.9801 -3.83278 20.4651
rtibia 31.8642
rfoot -8.14936 -6.95965
rtoes -1.23835
lfemur -20.8044 -3.19744 -17.2553
ltibia 28.3298
lfoot -12.9456 -14.1862
ltoes 29.9165
676
root 5.333 27.8459 -10.2552 9.18439 0.869154 -2.42037
lowerback 8.51243 0.133559 -1.86697
upperback 4.72122 0.0398842 -0.616572
thorax 0.111438 -0.00613177 0.409746
lowerneck -5.25349 0.180885 1.10774
upperneck 15.7593 -0.357009 3.10624
head 5.62173 0.102312 0.76669
rclavicle 1.13307e-014 -7.15625e-015
rhumerus -33.8583 -0.728346 -85.282
rradius 38.6155
rwrist 2.5199
rhand -8.2257 -13.5544
rfingers 7.12502
rthumb 17.6917 -42.7696
lclavicle 1.13307e-014 -7.15625e-015
lhumerus -21.3591 -26.3364 84.9374
lradius 34.1928
lwrist 5.67864
lhand -0.643618 -11.9475
lfingers 7.12502
lthumb 24.9738 16.4404
rfemur -28.2413 -3.54048 20.5275
rtibia 33.3327
rfoot -9.4098 -7.11451
rtoes -0.385088
lfemur -21.4173 -3.22774 -16.9533
ltibia 29.0866
lfoot -12.6122 -13.7625
ltoes 29.4542
677
root 5.33666 27.8436 -10.19 9.09666 1.02419 -2.61526
lowerback 8.44535 0.133446 -1.7101
upperback 4.78143 0.0539146 -0.572299
thorax 0.210058 0.00225582 0.366227
lowerneck -5.28635 0.162089 0.957668
upperneck 15.7876 -0.394648 3.28545
head 5.63682 0.0885769 0.845562
rclavicle 1.09332e-014 1.43125e-014
rhumerus -34.1372 -1.12792 -85.3558
rradius 39.0619
rwrist 2.11291
rhand -8.61136 -13.5292
rfingers 7.12502
rthumb 17.3205 -42.7775
lclavicle 1.09332e-014 1.43125e-014
lhumerus -21.0185 -26.115 84.7405
lradius 33.7311
lwrist 5.23682
lhand -0.669397 -11.8857
lfingers 7.12502
lthumb 24.9491 16.5056
rfemur -28.4441 -3.19712 20.6855
rtibia 34.8541
rfoot -10.6236 -7.4844
rtoes 0.37184
lfemur -21.8961 -3.17734 -16.562
ltibia 29.6363
lfoot -12.2724 -13.2692
ltoes 28.6317
678
root 5.34206 27.8401 -10.1228 8.99565 1.1186 -2.83425
lowerback 8.36505 0.165105 -1.50121
upperback 4.84003 0.113314 -0.526493
thorax 0.313568 0.0344086 0.291562
lowerneck -5.31589 0.13864 0.791026
upperneck 15.8422 -0.437681 3.46649
head 5.65975 0.0718372 0.927587
rclavicle 6.55989e-015 5.56597e-015
rhumerus -34.4396 -1.46983 -85.4336
rradius 39.4292
rwrist 1.67563
rhand -8.99803 -13.5939
rfingers 7.12502
rthumb 16.9483 -42.8745
lclavicle 6.55989e-015 5.56597e-015
lhumerus -20.6734 -25.766 84.5365
lradius 33.2911
lwrist 4.76101
lhand -0.678915 -11.8613
lfingers 7.12502
lthumb 24.9399 16.5313
rfemur -28.567 -2.82445 20.8907
rtibia 36.3535
rfoot -11.7204 -7.97658
rtoes 0.979883
lfemur -22.2323 -3.06577 -16.1274
ltibia 29.9629
lfoot -11.8824 -12.7221
ltoes 27.4428
679
root 5.34853 27.8356 -10.0539 8.87967 1.18144 -3.03513
lowerback 8.30917 0.216507 -1.28519
upperback 4.87274 0.197886 -0.491254
thorax 0.376956 0.0799663 0.200157
lowerneck -5.32683 0.0982994 0.658288
upperneck 15.932 -0.502764 3.61254
head 5.69092 0.0443554 0.991806
rclavicle 7.55382e-015 3.97569e-015
rhumerus -34.7831 -1.74206 -85.5265
rradius 39.7055
rwrist 1.24199
rhand -9.37678 -13.7305
rfingers 7.12502
rthumb 16.5837 -43.0419
lclavicle 7.55382e-015 3.97569e-015
lhumerus -20.3761 -25.2994 84.3395
lradius 32.8939
lwrist 4.29189
lhand -0.687347 -11.839
lfingers 7.12502
lthumb 24.9319 16.5547
rfemur -28.5793 -2.44278 21.0896
rtibia 37.745
rfoot -12.6446 -8.50779
rtoes 1.39549
lfemur -22.4426 -2.91607 -15.6995
ltibia 30.0923
lfoot -11.379 -12.1772
ltoes 26.1576
680
root 5.35487 27.8309 -9.98312 8.75559 1.23473 -3.17382
lowerback 8.28452 0.276731 -1.12027
upperback 4.87617 0.289409 -0.475449
thorax 0.393326 0.128683 0.11687
lowerneck -5.31991 0.0110687 0.616919
upperneck 16.0105 -0.630335 3.68939
head 5.71658 -0.0131846 1.01504
rclavicle 1.13307e-014 2.38542e-015
rhumerus -35.1567 -1.92836 -85.6435
rradius 39.8923
rwrist 0.823247
rhand -9.72068 -13.9122
rfingers 7.12502
rthumb 16.2526 -43.251
lclavicle 1.13307e-014 2.38542e-015
lhumerus -20.1331 -24.7194 84.1462
lradius 32.5543
lwrist 3.8685
lhand -0.759446 -11.8182
lfingers 7.12502
lthumb 24.8628 16.5851
rfemur -28.4665 -2.06117 21.2309
rtibia 38.9583
rfoot -13.3725 -8.99991
rtoes 1.63157
lfemur -22.5653 -2.75453 -15.3251
ltibia 30.0788
lfoot -10.7449 -11.678
ltoes 25.0374
681
root 5.36008 27.8267 -9.91032 8.63175 1.29977 -3.20624
lowerback 8.28206 0.335186 -1.06403
upperback 4.85543 0.370479 -0.485636
thorax 0.372718 0.170601 0.0684914
lowerneck -5.31299 -0.0695003 0.592927
upperneck 16.1558 -0.749793 3.7441
head 5.76315 -0.0662503 1.02927
rclavicle 1.98785e-016 3.18055e-015
rhumerus -35.5285 -2.02207 -85.7867
rradius 39.9753
rwrist 0.418751
rhand -9.9956 -14.1073
rfingers 7.12502
rthumb 15.9879 -43.4676
lclavicle 1.98785e-016 3.18055e-015
lhumerus -19.9398 -24.032 83.9551
lradius 32.2756
lwrist 3.50613
lhand -0.97908 -11.7937
lfingers 7.12502
lthumb 24.6523 16.6385
rfemur -28.2235 -1.69694 21.2654
rtibia 39.9442
rfoot -13.919 -9.38169
rtoes 1.69953
lfemur -22.64 -2.61303 -15.0526
ltibia 29.9827
lfoot -9.98591 -11.2541
ltoes 24.3955
682
root 5.3635 27.8239 -9.83488 8.51736 1.41374 -3.10638
lowerback 8.28037 0.380405 -1.14057
upperback 4.81916 0.424766 -0.52615
thorax 0.335502 0.197068 0.0653969
lowerneck -5.3194 -0.131951 0.560943
upperneck 16.3591 -0.846364 3.79989
head 5.82993 -0.107508 1.04692
rclavicle 1.33186e-014 -1.19271e-014
rhumerus -35.8665 -2.03138 -85.9507
rradius 39.9403
rwrist 0.0135422
rhand -10.1873 -14.261
rfingers 7.12502
rthumb 15.8033 -43.6359
lclavicle 1.33186e-014 -1.19271e-014
lhumerus -19.8008 -23.2682 83.7681
lradius 32.0803
lwrist 3.23717
lhand -1.37601 -11.7645
lfingers 7.12502
lthumb 24.2718 16.719
rfemur -27.8472 -1.36941 21.1657
rtibia 40.6693
rfoot -14.3426 -9.62259
rtoes 1.6211
lfemur -22.7065 -2.53467 -14.9072
ltibia 29.8543
lfoot -9.10753 -10.9181
ltoes 24.5319
683
root 5.36473 27.8233 -9.75703 8.43047 1.61555 -2.88248
lowerback 8.25552 0.403437 -1.33346
upperback 4.77542 0.442041 -0.592141
thorax 0.303131 0.203248 0.104345
lowerneck -5.34407 -0.188361 0.520468
upperneck 16.5853 -0.935906 3.86082
head 5.9072 -0.144829 1.06816
rclavicle -4.96962e-015 1.59028e-014
rhumerus -36.1485 -1.98365 -86.122
rradius 39.7821
rwrist -0.391445
rhand -10.2943 -14.3299
rfingers 7.12502
rthumb 15.7003 -43.7129
lclavicle -4.96962e-015 1.59028e-014
lhumerus -19.7126 -22.4776 83.5878
lradius 31.9939
lwrist 3.08152
lhand -1.97037 -11.7687
lfingers 7.12502
lthumb 23.7018 16.7899
rfemur -27.3586 -1.09616 20.947
rtibia 41.1149
rfoot -14.7093 -9.73688
rtoes 1.32853
lfemur -22.8096 -2.56329 -14.8704
ltibia 29.7252
lfoot -8.13021 -10.6466
ltoes 25.4849
684
root 5.36421 27.8247 -9.67758 8.38944 1.92909 -2.57709
lowerback 8.19559 0.398263 -1.5887
upperback 4.7226 0.418472 -0.670376
thorax 0.280967 0.188164 0.169042
lowerneck -5.37653 -0.228612 0.435506
upperneck 16.8285 -1.00581 3.96212
head 5.99128 -0.171967 1.11095
rclavicle 8.94531e-015 -1.03368e-014
rhumerus -36.3779 -1.90934 -86.2836
rradius 39.5157
rwrist -0.753008
rhand -10.3021 -14.3154
rfingers 7.12502
rthumb 15.6927 -43.699
lclavicle 8.94531e-015 -1.03368e-014
lhumerus -19.6747 -21.7149 83.4176
lradius 32.0252
lwrist 3.04375
lhand -2.7266 -11.8064
lfingers 7.12502
lthumb 22.9763 16.8443
rfemur -26.7892 -0.894223 20.6628
rtibia 41.2769
rfoot -15.076 -9.76041
rtoes 0.684085
lfemur -22.9725 -2.709 -14.8959
ltibia 29.5913
lfoot -7.08324 -10.3862
ltoes 26.9704
685
root 5.36265 27.8276 -9.597 8.40506 2.35731 -2.25835
lowerback 8.09532 0.364632 -1.82999
upperback 4.65706 0.359336 -0.743504
thorax 0.268717 0.155701 0.234085
lowerneck -5.42268 -0.267098 0.337156
upperneck 17.0555 -1.07238 4.06842
head 6.07292 -0.197916 1.15776
rclavicle 1.05356e-014 0
rhumerus -36.5675 -1.82385 -86.4269
rradius 39.1725
rwrist -1.02064
rhand -10.2164 -14.2502
rfingers 7.12502
rthumb 15.7752 -43.6273
lclavicle 1.05356e-014 0
lhumerus -19.6936 -21.0164 83.2594
lradius 32.1701
lwrist 3.13538
lhand -3.56772 -11.8819
lfingers 7.12502
lthumb 22.169 16.8669
rfemur -26.1631 -0.762307 20.3984
rtibia 41.1586
rfoot -15.4953 -9.74778
rtoes -0.503778
lfemur -23.192 -2.96112 -14.9099
ltibia 29.419
lfoot -6.00444 -10.081
ltoes 28.584
